<?xml version="1.0" encoding="UTF-8"?><svg xmlns="http://www.w3.org/2000/svg" stroke-dasharray="none" shape-rendering="auto" font-family="'Dialog'" width="1173" text-rendering="auto" fill-opacity="1" contentScriptType="text/ecmascript" color-interpolation="auto" color-rendering="auto" preserveAspectRatio="xMidYMid meet" font-size="12" viewBox="0 0 1173 1086" fill="black" xmlns:xlink="http://www.w3.org/1999/xlink" stroke="black" image-rendering="auto" stroke-miterlimit="10" zoomAndPan="magnify" version="1.0" stroke-linecap="square" stroke-linejoin="miter" contentStyleType="text/css" font-style="normal" height="1086" stroke-width="1" stroke-dashoffset="0" font-weight="normal" stroke-opacity="1">
<!--Generated by the Batik Graphics2D SVG Generator-->
<defs id="genericDefs"/>
<g>
<defs id="defs1">
<clipPath clipPathUnits="userSpaceOnUse" id="clipPath1">
<path d="M8 8 L1164 8 L1164 1078 L8 1078 L8 8 Z"/>
</clipPath>
<clipPath clipPathUnits="userSpaceOnUse" id="clipPath2">
<path d="M9 9 L58 9 L58 42 L9 42 L9 9 Z"/>
</clipPath>
<clipPath clipPathUnits="userSpaceOnUse" id="clipPath3">
<path d="M14 14 L53 14 L53 37 L14 37 L14 14 Z"/>
</clipPath>
<clipPath clipPathUnits="userSpaceOnUse" id="clipPath4">
<path d="M9 39 L1163 39 L1163 1077 L9 1077 L9 39 Z"/>
</clipPath>
<clipPath clipPathUnits="userSpaceOnUse" id="clipPath5">
<path d="M25 50 L98 50 L98 85 L25 85 L25 50 Z"/>
</clipPath>
<clipPath clipPathUnits="userSpaceOnUse" id="clipPath6">
<path d="M37 56 L87 56 L87 79 L37 79 L37 56 Z"/>
</clipPath>
<clipPath clipPathUnits="userSpaceOnUse" id="clipPath7">
<path d="M25 82 L98 82 L98 958 L25 958 L25 82 Z"/>
</clipPath>
<clipPath clipPathUnits="userSpaceOnUse" id="clipPath8">
<path d="M102 50 L208 50 L208 85 L102 85 L102 50 Z"/>
</clipPath>
<clipPath clipPathUnits="userSpaceOnUse" id="clipPath9">
<path d="M127 56 L183 56 L183 79 L127 79 L127 56 Z"/>
</clipPath>
<clipPath clipPathUnits="userSpaceOnUse" id="clipPath10">
<path d="M102 82 L208 82 L208 973 L102 973 L102 82 Z"/>
</clipPath>
<clipPath clipPathUnits="userSpaceOnUse" id="clipPath11">
<path d="M212 50 L296 50 L296 85 L212 85 L212 50 Z"/>
</clipPath>
<clipPath clipPathUnits="userSpaceOnUse" id="clipPath12">
<path d="M233 56 L276 56 L276 79 L233 79 L233 56 Z"/>
</clipPath>
<clipPath clipPathUnits="userSpaceOnUse" id="clipPath13">
<path d="M212 82 L296 82 L296 326 L212 326 L212 82 Z"/>
</clipPath>
<clipPath clipPathUnits="userSpaceOnUse" id="clipPath14">
<path d="M300 50 L382 50 L382 85 L300 85 L300 50 Z"/>
</clipPath>
<clipPath clipPathUnits="userSpaceOnUse" id="clipPath15">
<path d="M320 56 L362 56 L362 79 L320 79 L320 56 Z"/>
</clipPath>
<clipPath clipPathUnits="userSpaceOnUse" id="clipPath16">
<path d="M300 82 L382 82 L382 958 L300 958 L300 82 Z"/>
</clipPath>
<clipPath clipPathUnits="userSpaceOnUse" id="clipPath17">
<path d="M597 50 L784 50 L784 85 L597 85 L597 50 Z"/>
</clipPath>
<clipPath clipPathUnits="userSpaceOnUse" id="clipPath18">
<path d="M612 56 L770 56 L770 79 L612 79 L612 56 Z"/>
</clipPath>
<clipPath clipPathUnits="userSpaceOnUse" id="clipPath19">
<path d="M597 82 L784 82 L784 652 L597 652 L597 82 Z"/>
</clipPath>
<clipPath clipPathUnits="userSpaceOnUse" id="clipPath20">
<path d="M386 50 L481 50 L481 85 L386 85 L386 50 Z"/>
</clipPath>
<clipPath clipPathUnits="userSpaceOnUse" id="clipPath21">
<path d="M408 56 L459 56 L459 79 L408 79 L408 56 Z"/>
</clipPath>
<clipPath clipPathUnits="userSpaceOnUse" id="clipPath22">
<path d="M386 82 L481 82 L481 958 L386 958 L386 82 Z"/>
</clipPath>
<clipPath clipPathUnits="userSpaceOnUse" id="clipPath23">
<path d="M485 50 L593 50 L593 85 L485 85 L485 50 Z"/>
</clipPath>
<clipPath clipPathUnits="userSpaceOnUse" id="clipPath24">
<path d="M510 56 L569 56 L569 79 L510 79 L510 56 Z"/>
</clipPath>
<clipPath clipPathUnits="userSpaceOnUse" id="clipPath25">
<path d="M485 82 L593 82 L593 958 L485 958 L485 82 Z"/>
</clipPath>
<clipPath clipPathUnits="userSpaceOnUse" id="clipPath26">
<path d="M148 107 L163 107 L163 163 L148 163 L148 107 Z"/>
</clipPath>
<clipPath clipPathUnits="userSpaceOnUse" id="clipPath27">
<path d="M148 195 L163 195 L163 943 L148 943 L148 195 Z"/>
</clipPath>
<clipPath clipPathUnits="userSpaceOnUse" id="clipPath28">
<path d="M247 207 L262 207 L262 260 L247 260 L247 207 Z"/>
</clipPath>
<clipPath clipPathUnits="userSpaceOnUse" id="clipPath29">
<path d="M154 320 L168 320 L168 376 L154 376 L154 320 Z"/>
</clipPath>
<clipPath clipPathUnits="userSpaceOnUse" id="clipPath30">
<path d="M334 386 L349 386 L349 656 L334 656 L334 386 Z"/>
</clipPath>
<clipPath clipPathUnits="userSpaceOnUse" id="clipPath31">
<path d="M684 396 L698 396 L698 449 L684 449 L684 396 Z"/>
</clipPath>
<clipPath clipPathUnits="userSpaceOnUse" id="clipPath32">
<path d="M340 599 L354 599 L354 655 L340 655 L340 599 Z"/>
</clipPath>
<clipPath clipPathUnits="userSpaceOnUse" id="clipPath33">
<path d="M19 463 L70 463 L70 496 L19 496 L19 463 Z"/>
</clipPath>
<clipPath clipPathUnits="userSpaceOnUse" id="clipPath34">
<path d="M24 468 L65 468 L65 491 L24 491 L24 468 Z"/>
</clipPath>
<clipPath clipPathUnits="userSpaceOnUse" id="clipPath35">
<path d="M154 499 L168 499 L168 524 L154 524 L154 499 Z"/>
</clipPath>
<clipPath clipPathUnits="userSpaceOnUse" id="clipPath36">
<path d="M26 499 L104 499 L104 522 L26 522 L26 499 Z"/>
</clipPath>
<clipPath clipPathUnits="userSpaceOnUse" id="clipPath37">
<path d="M18 462 L406 462 L406 563 L18 563 L18 462 Z"/>
</clipPath>
<clipPath clipPathUnits="userSpaceOnUse" id="clipPath38">
<path d="M19 664 L50 664 L50 697 L19 697 L19 664 Z"/>
</clipPath>
<clipPath clipPathUnits="userSpaceOnUse" id="clipPath39">
<path d="M24 669 L45 669 L45 692 L24 692 L24 669 Z"/>
</clipPath>
<clipPath clipPathUnits="userSpaceOnUse" id="clipPath40">
<path d="M532 713 L547 713 L547 770 L532 770 L532 713 Z"/>
</clipPath>
<clipPath clipPathUnits="userSpaceOnUse" id="clipPath41">
<path d="M427 767 L441 767 L441 824 L427 824 L427 767 Z"/>
</clipPath>
<clipPath clipPathUnits="userSpaceOnUse" id="clipPath42">
<path d="M25 699 L163 699 L163 722 L25 722 L25 699 Z"/>
</clipPath>
<clipPath clipPathUnits="userSpaceOnUse" id="clipPath43">
<path d="M19 694 L795 694 L795 831 L19 831 L19 694 Z"/>
</clipPath>
<clipPath clipPathUnits="userSpaceOnUse" id="clipPath44">
<path d="M154 863 L168 863 L168 920 L154 920 L154 863 Z"/>
</clipPath>
<clipPath clipPathUnits="userSpaceOnUse" id="clipPath45">
<path d="M25 833 L103 833 L103 856 L25 856 L25 833 Z"/>
</clipPath>
<clipPath clipPathUnits="userSpaceOnUse" id="clipPath46">
<path d="M18 663 L796 663 L796 928 L18 928 L18 663 Z"/>
</clipPath>
<clipPath clipPathUnits="userSpaceOnUse" id="clipPath47">
<path d="M178 88 L367 88 L367 139 L178 139 L178 88 Z"/>
</clipPath>
<clipPath clipPathUnits="userSpaceOnUse" id="clipPath48">
<path d="M190 94 L340 94 L340 123 L190 123 L190 94 Z"/>
</clipPath>
<clipPath clipPathUnits="userSpaceOnUse" id="clipPath49">
<path d="M335 94 L352 94 L352 133 L335 133 L335 94 Z"/>
</clipPath>
<clipPath clipPathUnits="userSpaceOnUse" id="clipPath50">
<path d="M337 94 L352 94 L352 109 L337 109 L337 94 Z"/>
</clipPath>
<clipPath clipPathUnits="userSpaceOnUse" id="clipPath51">
<path d="M337 118 L352 118 L352 133 L337 133 L337 118 Z"/>
</clipPath>
<clipPath clipPathUnits="userSpaceOnUse" id="clipPath52">
<path d="M337 106 L352 106 L352 116 L337 116 L337 106 Z"/>
</clipPath>
<clipPath clipPathUnits="userSpaceOnUse" id="clipPath53">
<path d="M268 198 L486 198 L486 261 L268 261 L268 198 Z"/>
</clipPath>
<clipPath clipPathUnits="userSpaceOnUse" id="clipPath54">
<path d="M279 204 L459 204 L459 246 L279 246 L279 204 Z"/>
</clipPath>
<clipPath clipPathUnits="userSpaceOnUse" id="clipPath55">
<path d="M454 204 L471 204 L471 255 L454 255 L454 204 Z"/>
</clipPath>
<clipPath clipPathUnits="userSpaceOnUse" id="clipPath56">
<path d="M456 204 L471 204 L471 219 L456 219 L456 204 Z"/>
</clipPath>
<clipPath clipPathUnits="userSpaceOnUse" id="clipPath57">
<path d="M456 240 L471 240 L471 255 L456 255 L456 240 Z"/>
</clipPath>
<clipPath clipPathUnits="userSpaceOnUse" id="clipPath58">
<path d="M456 216 L471 216 L471 234 L456 234 L456 216 Z"/>
</clipPath>
<clipPath clipPathUnits="userSpaceOnUse" id="clipPath59">
<path d="M278 278 L491 278 L491 336 L278 336 L278 278 Z"/>
</clipPath>
<clipPath clipPathUnits="userSpaceOnUse" id="clipPath60">
<path d="M289 284 L467 284 L467 319 L289 319 L289 284 Z"/>
</clipPath>
<clipPath clipPathUnits="userSpaceOnUse" id="clipPath61">
<path d="M707 418 L1055 418 L1055 484 L707 484 L707 418 Z"/>
</clipPath>
<clipPath clipPathUnits="userSpaceOnUse" id="clipPath62">
<path d="M718 424 L1015 424 L1015 466 L718 466 L718 424 Z"/>
</clipPath>
<clipPath clipPathUnits="userSpaceOnUse" id="clipPath63">
<path d="M1023 424 L1040 424 L1040 478 L1023 478 L1023 424 Z"/>
</clipPath>
<clipPath clipPathUnits="userSpaceOnUse" id="clipPath64">
<path d="M1025 424 L1040 424 L1040 439 L1025 439 L1025 424 Z"/>
</clipPath>
<clipPath clipPathUnits="userSpaceOnUse" id="clipPath65">
<path d="M1025 463 L1040 463 L1040 478 L1025 478 L1025 463 Z"/>
</clipPath>
<clipPath clipPathUnits="userSpaceOnUse" id="clipPath66">
<path d="M1025 436 L1040 436 L1040 457 L1025 457 L1025 436 Z"/>
</clipPath>
<clipPath clipPathUnits="userSpaceOnUse" id="clipPath67">
<path d="M716 571 L1059 571 L1059 715 L716 715 L716 571 Z"/>
</clipPath>
<clipPath clipPathUnits="userSpaceOnUse" id="clipPath68">
<path d="M728 577 L1035 577 L1035 632 L728 632 L728 577 Z"/>
</clipPath>
<clipPath clipPathUnits="userSpaceOnUse" id="clipPath69">
<path d="M728 645 L964 645 L964 662 L728 662 L728 645 Z"/>
</clipPath>
<clipPath clipPathUnits="userSpaceOnUse" id="clipPath70">
<path d="M-1 -1 L1174 -1 L1174 1087 L-1 1087 L-1 -1 Z"/>
</clipPath>
<clipPath clipPathUnits="userSpaceOnUse" id="clipPath71">
<path d="M328 692 L366 692 L366 715 L328 715 L328 692 Z"/>
</clipPath>
<clipPath clipPathUnits="userSpaceOnUse" id="clipPath72">
<path d="M527 710 L540 710 L540 721 L527 721 L527 710 Z"/>
</clipPath>
<clipPath clipPathUnits="userSpaceOnUse" id="clipPath73">
<path d="M143 230 L272 230 L272 252 L143 252 L143 230 Z"/>
</clipPath>
<clipPath clipPathUnits="userSpaceOnUse" id="clipPath74">
<path d="M159 254 L173 254 L173 264 L159 264 L159 254 Z"/>
</clipPath>
<clipPath clipPathUnits="userSpaceOnUse" id="clipPath75">
<path d="M129 288 L277 288 L277 311 L129 311 L129 288 Z"/>
</clipPath>
<clipPath clipPathUnits="userSpaceOnUse" id="clipPath76">
<path d="M159 316 L173 316 L173 328 L159 328 L159 316 Z"/>
</clipPath>
<clipPath clipPathUnits="userSpaceOnUse" id="clipPath77">
<path d="M143 186 L272 186 L272 208 L143 208 L143 186 Z"/>
</clipPath>
<clipPath clipPathUnits="userSpaceOnUse" id="clipPath78">
<path d="M242 203 L256 203 L256 215 L242 215 L242 203 Z"/>
</clipPath>
<clipPath clipPathUnits="userSpaceOnUse" id="clipPath79">
<path d="M269 747 L319 747 L319 769 L269 769 L269 747 Z"/>
</clipPath>
<clipPath clipPathUnits="userSpaceOnUse" id="clipPath80">
<path d="M421 764 L434 764 L434 775 L421 775 L421 764 Z"/>
</clipPath>
<clipPath clipPathUnits="userSpaceOnUse" id="clipPath81">
<path d="M481 374 L556 374 L556 397 L481 397 L481 374 Z"/>
</clipPath>
<clipPath clipPathUnits="userSpaceOnUse" id="clipPath82">
<path d="M678 392 L692 392 L692 404 L678 404 L678 392 Z"/>
</clipPath>
<clipPath clipPathUnits="userSpaceOnUse" id="clipPath83">
<path d="M218 365 L283 365 L283 387 L218 387 L218 365 Z"/>
</clipPath>
<clipPath clipPathUnits="userSpaceOnUse" id="clipPath84">
<path d="M329 382 L343 382 L343 394 L329 394 L329 382 Z"/>
</clipPath>
<clipPath clipPathUnits="userSpaceOnUse" id="clipPath85">
<path d="M481 418 L556 418 L556 441 L481 441 L481 418 Z"/>
</clipPath>
<clipPath clipPathUnits="userSpaceOnUse" id="clipPath86">
<path d="M345 442 L359 442 L359 453 L345 453 L345 442 Z"/>
</clipPath>
<clipPath clipPathUnits="userSpaceOnUse" id="clipPath87">
<path d="M40 173 L176 173 L176 196 L40 196 L40 173 Z"/>
</clipPath>
<clipPath clipPathUnits="userSpaceOnUse" id="clipPath88">
<path d="M143 191 L156 191 L156 202 L143 202 L143 191 Z"/>
</clipPath>
<clipPath clipPathUnits="userSpaceOnUse" id="clipPath89">
<path d="M116 839 L279 839 L279 862 L116 862 L116 839 Z"/>
</clipPath>
<clipPath clipPathUnits="userSpaceOnUse" id="clipPath90">
<path d="M159 860 L173 860 L173 871 L159 871 L159 860 Z"/>
</clipPath>
<clipPath clipPathUnits="userSpaceOnUse" id="clipPath91">
<path d="M221 472 L281 472 L281 495 L221 495 L221 472 Z"/>
</clipPath>
<clipPath clipPathUnits="userSpaceOnUse" id="clipPath92">
<path d="M159 496 L173 496 L173 507 L159 507 L159 496 Z"/>
</clipPath>
<clipPath clipPathUnits="userSpaceOnUse" id="clipPath93">
<path d="M38 86 L177 86 L177 108 L38 108 L38 86 Z"/>
</clipPath>
<clipPath clipPathUnits="userSpaceOnUse" id="clipPath94">
<path d="M143 103 L156 103 L156 114 L143 114 L143 103 Z"/>
</clipPath>
<clipPath clipPathUnits="userSpaceOnUse" id="clipPath95">
<path d="M356 566 L424 566 L424 589 L356 589 L356 566 Z"/>
</clipPath>
<clipPath clipPathUnits="userSpaceOnUse" id="clipPath96">
<path d="M345 595 L359 595 L359 607 L345 607 L345 595 Z"/>
</clipPath>
</defs>
<g font-size="15" fill="rgb(247,247,247)" font-family="'Segoe UI'" stroke-linejoin="round" stroke="rgb(247,247,247)" stroke-width="0" stroke-miterlimit="0">
<rect x="10" y="10" clip-path="url(#clipPath1)" width="1152" height="1066" stroke="none"/>
<polygon fill="white" clip-path="url(#clipPath2)" points=" 10 10 55 10 55 32 49 39 10 39" stroke="none"/>
</g>
<g font-size="15" font-family="'Segoe UI'" stroke-linecap="butt">
<polygon fill="none" clip-path="url(#clipPath2)" points=" 10 10 55 10 55 32 49 39 10 39"/>
<text x="15" y="32" clip-path="url(#clipPath3)" stroke="none" font-weight="bold" xml:space="preserve">login</text>
<rect x="12" y="42" clip-path="url(#clipPath4)" fill="none" width="1147" height="1031" stroke-width="2"/>
<rect x="27" y="52" clip-path="url(#clipPath5)" fill="rgb(225,235,245)" width="70" height="32" stroke="none" stroke-width="2"/>
<text x="38" y="74" clip-path="url(#clipPath6)" stroke="none" stroke-width="2" xml:space="preserve">user:...</text>
<rect x="27" y="52" clip-path="url(#clipPath5)" fill="none" width="69" height="31" stroke-width="1.0827"/>
<line clip-path="url(#clipPath7)" fill="none" x1="61" x2="61" y1="83" y2="956" stroke-dasharray="20,8" stroke-width="1.0827"/>
</g>
<g stroke-linecap="butt" font-size="15" fill="rgb(225,235,245)" font-family="'Segoe UI'" stroke-dasharray="20,8" stroke="rgb(225,235,245)" stroke-width="1.0827">
<rect x="104" y="52" clip-path="url(#clipPath8)" width="103" height="32" stroke="none"/>
<text x="128" y="74" clip-path="url(#clipPath9)" fill="black" stroke="none" xml:space="preserve">:index.js</text>
<rect x="104" y="52" clip-path="url(#clipPath8)" fill="none" width="102" stroke-dasharray="none" height="31" stroke="black"/>
<line clip-path="url(#clipPath10)" fill="none" x1="155" x2="155" y1="83" y2="971" stroke="black"/>
<rect x="214" y="52" clip-path="url(#clipPath11)" width="81" height="32" stroke="none"/>
<text x="234" y="74" clip-path="url(#clipPath12)" fill="black" stroke="none" xml:space="preserve">:Event</text>
<rect x="214" y="52" clip-path="url(#clipPath11)" fill="none" width="80" stroke-dasharray="none" height="31" stroke="black"/>
<line clip-path="url(#clipPath13)" fill="none" x1="254" x2="254" y1="83" y2="324" stroke="black"/>
<rect x="302" y="52" clip-path="url(#clipPath14)" width="79" height="32" stroke="none"/>
<text x="321" y="74" clip-path="url(#clipPath15)" fill="black" stroke="none" xml:space="preserve">:Fetch</text>
<rect x="302" y="52" clip-path="url(#clipPath14)" fill="none" width="78" stroke-dasharray="none" height="31" stroke="black"/>
<line clip-path="url(#clipPath16)" fill="none" x1="341" x2="341" y1="83" y2="956" stroke="black"/>
<rect x="599" y="52" clip-path="url(#clipPath17)" width="184" height="32" stroke="none"/>
<text x="613" y="74" clip-path="url(#clipPath18)" fill="black" stroke="none" xml:space="preserve">:«Application»LoginAPI</text>
<rect x="599" y="52" clip-path="url(#clipPath17)" fill="none" width="183" stroke-dasharray="none" height="31" stroke="black"/>
<line clip-path="url(#clipPath19)" fill="none" x1="690" x2="690" y1="83" y2="650" stroke="black"/>
<rect x="388" y="52" clip-path="url(#clipPath20)" width="92" height="32" stroke="none"/>
<text x="409" y="74" clip-path="url(#clipPath21)" fill="black" stroke="none" xml:space="preserve">:Router</text>
<rect x="388" y="52" clip-path="url(#clipPath20)" fill="none" width="91" stroke-dasharray="none" height="31" stroke="black"/>
<line clip-path="url(#clipPath22)" fill="none" x1="433" x2="433" y1="83" y2="956" stroke="black"/>
<rect x="487" y="52" clip-path="url(#clipPath23)" width="105" height="32" stroke="none"/>
<text x="511" y="74" clip-path="url(#clipPath24)" fill="black" stroke="none" xml:space="preserve">:Cookies</text>
<rect x="487" y="52" clip-path="url(#clipPath23)" fill="none" width="104" stroke-dasharray="none" height="31" stroke="black"/>
<line clip-path="url(#clipPath25)" fill="none" x1="539" x2="539" y1="83" y2="956" stroke="black"/>
<rect x="150" y="109" clip-path="url(#clipPath26)" width="11" height="52" stroke="none"/>
<rect x="150" y="109" clip-path="url(#clipPath26)" fill="none" width="10" stroke-dasharray="none" height="52" stroke="black"/>
<rect x="150" y="197" clip-path="url(#clipPath27)" width="11" stroke-dasharray="none" height="744" stroke="none"/>
<rect x="150" y="197" clip-path="url(#clipPath27)" fill="none" width="10" stroke-dasharray="none" height="743" stroke="black"/>
<rect x="249" y="209" clip-path="url(#clipPath28)" width="11" stroke-dasharray="none" height="49" stroke="none"/>
<rect x="249" y="209" clip-path="url(#clipPath28)" fill="none" width="10" stroke-dasharray="none" height="49" stroke="black"/>
<rect x="156" y="322" clip-path="url(#clipPath29)" width="10" stroke-dasharray="none" height="52" stroke="none"/>
<rect x="155" y="322" clip-path="url(#clipPath29)" fill="none" width="11" stroke-dasharray="none" height="52" stroke="black"/>
<rect x="336" y="388" clip-path="url(#clipPath30)" width="11" stroke-dasharray="none" height="266" stroke="none"/>
<rect x="336" y="388" clip-path="url(#clipPath30)" fill="none" width="10" stroke-dasharray="none" height="265" stroke="black"/>
<rect x="686" y="398" clip-path="url(#clipPath31)" width="10" stroke-dasharray="none" height="49" stroke="none"/>
<rect x="685" y="398" clip-path="url(#clipPath31)" fill="none" width="11" stroke-dasharray="none" height="49" stroke="black"/>
<rect x="342" y="601" clip-path="url(#clipPath32)" width="10" stroke-dasharray="none" height="52" stroke="none"/>
<rect x="341" y="601" clip-path="url(#clipPath32)" fill="none" width="11" stroke-dasharray="none" height="51" stroke="black"/>
<polygon fill="white" stroke-dasharray="none" clip-path="url(#clipPath33)" points=" 20 464 67 464 67 486 61 493 20 493" stroke="none"/>
</g>
<g font-size="15" font-family="'Segoe UI'" stroke-linecap="butt">
<polygon fill="none" clip-path="url(#clipPath33)" points=" 20 464 67 464 67 486 61 493 20 493"/>
<text xml:space="preserve" x="25" y="486" clip-path="url(#clipPath34)" stroke="none">break</text>
<rect x="156" y="501" clip-path="url(#clipPath35)" fill="rgb(225,235,245)" width="10" height="21" stroke="none"/>
<rect x="155" y="501" clip-path="url(#clipPath35)" fill="none" width="11" height="20" stroke-width="1.0827"/>
<text x="27" y="517" clip-path="url(#clipPath36)" stroke="none" stroke-width="1.0827" xml:space="preserve">[exception]</text>
<rect x="20" y="464" clip-path="url(#clipPath37)" fill="none" width="384" height="97" stroke-width="1.0827"/>
<polygon fill="white" stroke-width="1.0827" clip-path="url(#clipPath38)" points=" 20 665 47 665 47 687 41 694 20 694" stroke="none"/>
<polygon fill="none" clip-path="url(#clipPath38)" points=" 20 665 47 665 47 687 41 694 20 694"/>
<text xml:space="preserve" x="25" y="687" clip-path="url(#clipPath39)" stroke="none">alt</text>
<rect x="534" y="715" clip-path="url(#clipPath40)" fill="rgb(225,235,245)" width="10" height="53" stroke="none"/>
<rect x="534" y="715" clip-path="url(#clipPath40)" fill="none" width="10" height="52" stroke-width="1.0827"/>
<rect x="429" y="769" clip-path="url(#clipPath41)" fill="rgb(225,235,245)" width="10" height="53" stroke="none" stroke-width="1.0827"/>
<rect x="428" y="769" clip-path="url(#clipPath41)" fill="none" width="11" height="52" stroke-width="1.0827"/>
<text x="26" y="717" clip-path="url(#clipPath42)" stroke="none" stroke-width="1.0827" xml:space="preserve">[success AND token]</text>
<line clip-path="url(#clipPath43)" fill="none" x1="20" x2="793" y1="828" y2="828" stroke-width="1.0827"/>
<rect x="156" y="865" clip-path="url(#clipPath44)" fill="rgb(225,235,245)" width="10" height="53" stroke="none" stroke-width="1.0827"/>
<rect x="155" y="865" clip-path="url(#clipPath44)" fill="none" width="11" height="52" stroke-width="1.0827"/>
<text x="26" y="851" clip-path="url(#clipPath45)" stroke="none" stroke-width="1.0827" xml:space="preserve">[exception]</text>
<rect x="20" y="664" clip-path="url(#clipPath46)" fill="none" width="774" height="261" stroke-width="1.0827"/>
</g>
<g stroke-linecap="butt" font-size="13" fill="rgb(250,244,212)" font-family="'Segoe UI'" stroke="rgb(250,244,212)" stroke-width="1.0827">
<path d="M180.0945 90.2929 L180.0945 90.2929 L352.063 90.2929 L364.989 102.274 L364.989 137.2346 L180.0945 137.2346 L180.0945 90.2929 Z" clip-path="url(#clipPath47)" fill-rule="evenodd" stroke="none"/>
</g>
<g stroke-width="1.0827" font-size="11" font-family="'Tahoma'" stroke-linecap="butt">
<text xml:space="preserve" x="191" y="106" clip-path="url(#clipPath48)" stroke="none">O usuário preenche os campos</text>
<text xml:space="preserve" x="191" y="119" clip-path="url(#clipPath48)" stroke="none">de login e password</text>
</g>
<g stroke-linecap="butt" font-size="13" fill="rgb(250,244,212)" font-family="'Segoe UI'" stroke="rgb(250,244,212)" stroke-width="1.0827">
<rect x="336" y="95" clip-path="url(#clipPath49)" width="15" height="37" stroke="none"/>
<rect x="338" y="95" clip-path="url(#clipPath50)" fill="white" width="13" opacity="0.5098" height="13" stroke="none"/>
<rect x="338" y="95" clip-path="url(#clipPath50)" fill="none" width="12" opacity="0.5098" height="12" stroke="rgb(185,185,185)"/>
<rect x="340" y="97" clip-path="url(#clipPath50)" fill="rgb(240,240,240)" width="9" opacity="0.5098" height="9" stroke="none"/>
<line clip-path="url(#clipPath50)" fill="none" x1="340" x2="344" y1="103" y2="99" opacity="0.5098" stroke="rgb(187,187,187)" stroke-width="2.0654"/>
<line clip-path="url(#clipPath50)" fill="none" x1="344" x2="348" y1="99" y2="103" opacity="0.5098" stroke="rgb(187,187,187)" stroke-width="2.0654"/>
<rect x="338" y="119" clip-path="url(#clipPath51)" fill="white" width="13" opacity="0.5098" height="13" stroke="none" stroke-width="2.0654"/>
<rect x="338" y="119" clip-path="url(#clipPath51)" fill="none" width="12" opacity="0.5098" height="12" stroke="rgb(185,185,185)"/>
<rect x="340" y="121" clip-path="url(#clipPath51)" fill="rgb(240,240,240)" width="9" opacity="0.5098" height="9" stroke="none"/>
<line clip-path="url(#clipPath51)" fill="none" x1="340" x2="344" y1="123" y2="127" opacity="0.5098" stroke="rgb(187,187,187)" stroke-width="2.0654"/>
<line clip-path="url(#clipPath51)" fill="none" x1="344" x2="348" y1="127" y2="123" opacity="0.5098" stroke="rgb(187,187,187)" stroke-width="2.0654"/>
<rect x="338" y="107" clip-path="url(#clipPath52)" fill="white" width="13" opacity="0.5098" height="8" stroke="none" stroke-width="2.0654"/>
<rect x="338" y="107" clip-path="url(#clipPath52)" fill="none" width="12" opacity="0.5098" height="7" stroke="rgb(185,185,185)"/>
<rect x="340" y="109" clip-path="url(#clipPath52)" fill="rgb(240,240,240)" width="9" opacity="0.5098" height="4" stroke="none"/>
<line clip-path="url(#clipPath47)" fill="none" x1="180" x2="352" y1="90" y2="90" stroke="black"/>
<line clip-path="url(#clipPath47)" fill="none" x1="352" x2="364" y1="90" y2="102" stroke="black"/>
<line clip-path="url(#clipPath47)" fill="none" x1="364" x2="364" y1="102" y2="137" stroke="black"/>
<line clip-path="url(#clipPath47)" fill="none" x1="364" x2="180" y1="137" y2="137" stroke="black"/>
<line clip-path="url(#clipPath47)" fill="none" x1="180" x2="180" y1="137" y2="90" stroke="black"/>
<line clip-path="url(#clipPath47)" fill="none" x1="180" x2="180" y1="90" y2="89" stroke="black"/>
<line clip-path="url(#clipPath47)" fill="none" x1="352" x2="352" y1="90" y2="102" stroke="black"/>
<line clip-path="url(#clipPath47)" fill="none" x1="352" x2="365" y1="102" y2="102" stroke="black"/>
<path d="M269.8961 200.0504 L269.8961 200.0504 L470.8535 200.0504 L483.7795 212.0315 L483.7795 258.9732 L269.8961 258.9732 L269.8961 200.0504 Z" clip-path="url(#clipPath53)" fill-rule="evenodd" stroke="none"/>
</g>
<g stroke-width="1.0827" font-size="11" font-family="'Tahoma'" stroke-linecap="butt">
<text xml:space="preserve" x="280" y="216" clip-path="url(#clipPath54)" stroke="none">O usuário clica no botão "Logar". A</text>
<text xml:space="preserve" x="280" y="229" clip-path="url(#clipPath54)" stroke="none">função preventDefault() permite que</text>
<text xml:space="preserve" x="280" y="242" clip-path="url(#clipPath54)" stroke="none">o código javascript seja executado</text>
</g>
<g stroke-linecap="butt" font-size="15" fill="rgb(250,244,212)" font-family="'Segoe UI'" stroke="rgb(250,244,212)" stroke-width="1.0827">
<rect x="455" y="205" clip-path="url(#clipPath55)" width="15" height="49" stroke="none"/>
<rect x="457" y="205" clip-path="url(#clipPath56)" fill="white" width="13" opacity="0.5098" height="13" stroke="none"/>
<rect x="457" y="205" clip-path="url(#clipPath56)" fill="none" width="12" opacity="0.5098" height="12" stroke="rgb(185,185,185)"/>
<rect x="459" y="207" clip-path="url(#clipPath56)" fill="rgb(240,240,240)" width="9" opacity="0.5098" height="9" stroke="none"/>
<line clip-path="url(#clipPath56)" fill="none" x1="459" x2="463" y1="213" y2="209" opacity="0.5098" stroke="rgb(187,187,187)" stroke-width="2.0654"/>
<line clip-path="url(#clipPath56)" fill="none" x1="463" x2="467" y1="209" y2="213" opacity="0.5098" stroke="rgb(187,187,187)" stroke-width="2.0654"/>
<rect x="457" y="241" clip-path="url(#clipPath57)" fill="white" width="13" opacity="0.5098" height="13" stroke="none" stroke-width="2.0654"/>
<rect x="457" y="241" clip-path="url(#clipPath57)" fill="none" width="12" opacity="0.5098" height="12" stroke="rgb(185,185,185)"/>
<rect x="459" y="243" clip-path="url(#clipPath57)" fill="rgb(240,240,240)" width="9" opacity="0.5098" height="9" stroke="none"/>
<line clip-path="url(#clipPath57)" fill="none" x1="459" x2="463" y1="245" y2="249" opacity="0.5098" stroke="rgb(187,187,187)" stroke-width="2.0654"/>
<line clip-path="url(#clipPath57)" fill="none" x1="463" x2="467" y1="249" y2="245" opacity="0.5098" stroke="rgb(187,187,187)" stroke-width="2.0654"/>
<rect x="457" y="217" clip-path="url(#clipPath58)" fill="white" width="13" opacity="0.5098" height="16" stroke="none" stroke-width="2.0654"/>
<rect x="457" y="217" clip-path="url(#clipPath58)" fill="none" width="12" opacity="0.5098" height="15" stroke="rgb(185,185,185)"/>
<rect x="459" y="219" clip-path="url(#clipPath58)" fill="rgb(240,240,240)" width="9" opacity="0.5098" height="12" stroke="none"/>
<line clip-path="url(#clipPath53)" fill="none" x1="269" x2="470" y1="200" y2="200" stroke="black"/>
<line clip-path="url(#clipPath53)" fill="none" x1="470" x2="483" y1="200" y2="212" stroke="black"/>
<line clip-path="url(#clipPath53)" fill="none" x1="483" x2="483" y1="212" y2="258" stroke="black"/>
<line clip-path="url(#clipPath53)" fill="none" x1="483" x2="269" y1="258" y2="258" stroke="black"/>
<line clip-path="url(#clipPath53)" fill="none" x1="269" x2="269" y1="258" y2="200" stroke="black"/>
<line clip-path="url(#clipPath53)" fill="none" x1="269" x2="269" y1="200" y2="199" stroke="black"/>
<line clip-path="url(#clipPath53)" fill="none" x1="470" x2="470" y1="200" y2="212" stroke="black"/>
<line clip-path="url(#clipPath53)" fill="none" x1="470" x2="483" y1="212" y2="212" stroke="black"/>
<path d="M279.874 279.874 L279.874 279.874 L475.8047 279.874 L488.7307 291.8551 L488.7307 333.8457 L279.874 333.8457 L279.874 279.874 Z" clip-path="url(#clipPath59)" fill-rule="evenodd" stroke="none"/>
</g>
<g stroke-width="1.0827" font-size="13" font-family="'Tahoma'" stroke-linecap="butt">
<text xml:space="preserve" x="290" y="298" clip-path="url(#clipPath60)" stroke="none">A página recupera os valores</text>
<text xml:space="preserve" x="290" y="314" clip-path="url(#clipPath60)" stroke="none">de login e senha do formulário</text>
</g>
<g stroke-linecap="butt" font-size="11" fill="rgb(194,192,192)" font-family="'Segoe UI'" stroke="rgb(194,192,192)" stroke-width="1.0827">
<line clip-path="url(#clipPath59)" fill="none" x1="279" x2="475" y1="279" y2="279"/>
<line clip-path="url(#clipPath59)" fill="none" x1="475" x2="488" y1="279" y2="291"/>
<line clip-path="url(#clipPath59)" fill="none" x1="488" x2="488" y1="291" y2="333"/>
<line clip-path="url(#clipPath59)" fill="none" x1="488" x2="279" y1="333" y2="333"/>
<line clip-path="url(#clipPath59)" fill="none" x1="279" x2="279" y1="333" y2="279"/>
<line clip-path="url(#clipPath59)" fill="none" x1="279" x2="279" y1="279" y2="279"/>
<line clip-path="url(#clipPath59)" fill="none" x1="475" x2="475" y1="279" y2="291"/>
<line clip-path="url(#clipPath59)" fill="none" x1="475" x2="488" y1="291" y2="291"/>
<path fill="rgb(250,244,212)" d="M708.926 419.5654 L708.926 419.5654 L1039.937 419.5654 L1052.863 431.5464 L1052.863 481.5118 L708.926 481.5118 L708.926 419.5654 Z" clip-path="url(#clipPath61)" fill-rule="evenodd" stroke="none"/>
<text x="719" y="436" clip-path="url(#clipPath62)" fill="black" font-family="'Tahoma'" stroke="none" xml:space="preserve">A página chama a api do frontend (/pages/api/login) usandoo</text>
<text x="719" y="449" clip-path="url(#clipPath62)" fill="black" font-family="'Tahoma'" stroke="none" xml:space="preserve">método POST com os valores do formulário. Caso haja algum</text>
<text x="719" y="462" clip-path="url(#clipPath62)" fill="black" font-family="'Tahoma'" stroke="none" xml:space="preserve">erro ele é retornado na página.</text>
<rect x="1024" y="425" clip-path="url(#clipPath63)" fill="rgb(250,244,212)" width="15" height="52" stroke="none"/>
<rect x="1026" y="425" clip-path="url(#clipPath64)" fill="white" width="13" opacity="0.5098" height="13" stroke="none"/>
<rect x="1026" y="425" clip-path="url(#clipPath64)" fill="none" width="12" opacity="0.5098" height="12" stroke="rgb(185,185,185)"/>
<rect x="1028" y="427" clip-path="url(#clipPath64)" fill="rgb(240,240,240)" width="9" opacity="0.5098" height="9" stroke="none"/>
<line clip-path="url(#clipPath64)" fill="none" x1="1028" x2="1032" y1="433" y2="429" opacity="0.5098" stroke="rgb(187,187,187)" stroke-width="2.0654"/>
<line clip-path="url(#clipPath64)" fill="none" x1="1032" x2="1036" y1="429" y2="433" opacity="0.5098" stroke="rgb(187,187,187)" stroke-width="2.0654"/>
<rect x="1026" y="464" clip-path="url(#clipPath65)" fill="white" width="13" opacity="0.5098" height="13" stroke="none" stroke-width="2.0654"/>
<rect x="1026" y="464" clip-path="url(#clipPath65)" fill="none" width="12" opacity="0.5098" height="12" stroke="rgb(185,185,185)"/>
<rect x="1028" y="466" clip-path="url(#clipPath65)" fill="rgb(240,240,240)" width="9" opacity="0.5098" height="9" stroke="none"/>
<line clip-path="url(#clipPath65)" fill="none" x1="1028" x2="1032" y1="468" y2="472" opacity="0.5098" stroke="rgb(187,187,187)" stroke-width="2.0654"/>
<line clip-path="url(#clipPath65)" fill="none" x1="1032" x2="1036" y1="472" y2="468" opacity="0.5098" stroke="rgb(187,187,187)" stroke-width="2.0654"/>
<rect x="1026" y="437" clip-path="url(#clipPath66)" fill="white" width="13" opacity="0.5098" height="19" stroke="none" stroke-width="2.0654"/>
<rect x="1026" y="437" clip-path="url(#clipPath66)" fill="none" width="12" opacity="0.5098" height="18" stroke="rgb(185,185,185)"/>
<rect x="1028" y="439" clip-path="url(#clipPath66)" fill="rgb(240,240,240)" width="9" opacity="0.5098" height="15" stroke="none"/>
<line clip-path="url(#clipPath61)" fill="none" x1="708" x2="1039" y1="419" y2="419"/>
<line clip-path="url(#clipPath61)" fill="none" x1="1039" x2="1052" y1="419" y2="431"/>
<line clip-path="url(#clipPath61)" fill="none" x1="1052" x2="1052" y1="431" y2="481"/>
<line clip-path="url(#clipPath61)" fill="none" x1="1052" x2="708" y1="481" y2="481"/>
<line clip-path="url(#clipPath61)" fill="none" x1="708" x2="708" y1="481" y2="419"/>
<line clip-path="url(#clipPath61)" fill="none" x1="708" x2="708" y1="419" y2="419"/>
<line clip-path="url(#clipPath61)" fill="none" x1="1039" x2="1039" y1="419" y2="431"/>
<line clip-path="url(#clipPath61)" fill="none" x1="1039" x2="1052" y1="431" y2="431"/>
<path fill="rgb(250,244,212)" d="M718.4504 573.4677 L718.4504 573.4677 L1044.4347 573.4677 L1057.3606 585.4488 L1057.3606 713.3858 L718.4504 713.3858 L718.4504 573.4677 Z" clip-path="url(#clipPath67)" fill-rule="evenodd" stroke="none"/>
<text x="729" y="589" clip-path="url(#clipPath68)" fill="black" font-family="'Tahoma'" stroke="none" xml:space="preserve">Se não houver erros, se procede a processar o retorno da API.</text>
<text x="729" y="602" clip-path="url(#clipPath68)" fill="black" font-family="'Tahoma'" stroke="none" xml:space="preserve">Se o payload conter valores válidos para atributos 'success' e '</text>
<text x="729" y="615" clip-path="url(#clipPath68)" fill="black" font-family="'Tahoma'" stroke="none" xml:space="preserve">token', é criado um cookie no frontend com o token e depois o</text>
<text x="729" y="628" clip-path="url(#clipPath68)" fill="black" font-family="'Tahoma'" stroke="none" xml:space="preserve">usuário é redirecionado para a tela '/pages/profile.js'</text>
<text x="729" y="657" clip-path="url(#clipPath69)" fill="black" font-family="'Tahoma'" stroke="none" xml:space="preserve">Se houver algum erro, ele é apresentado na tela</text>
<line clip-path="url(#clipPath67)" fill="none" x1="718" x2="1044" y1="573" y2="573"/>
<line clip-path="url(#clipPath67)" fill="none" x1="1044" x2="1057" y1="573" y2="585"/>
<line clip-path="url(#clipPath67)" fill="none" x1="1057" x2="1057" y1="585" y2="713"/>
<line clip-path="url(#clipPath67)" fill="none" x1="1057" x2="718" y1="713" y2="713"/>
<line clip-path="url(#clipPath67)" fill="none" x1="718" x2="718" y1="713" y2="573"/>
<line clip-path="url(#clipPath67)" fill="none" x1="718" x2="718" y1="573" y2="572"/>
<line clip-path="url(#clipPath67)" fill="none" x1="1044" x2="1044" y1="573" y2="585"/>
<line clip-path="url(#clipPath67)" fill="none" x1="1044" x2="1057" y1="585" y2="585"/>
<rect x="10" y="10" clip-path="url(#clipPath1)" fill="none" width="1152" height="1065" stroke="black"/>
<line clip-path="url(#clipPath70)" fill="none" x1="154" x2="538" y1="715" y2="715" stroke="black"/>
<text x="329" font-size="15" y="710" clip-path="url(#clipPath71)" fill="black" stroke="none" xml:space="preserve">1: set</text>
<line clip-path="url(#clipPath72)" fill="none" x1="528" x2="538" y1="719" y2="715" stroke="black" stroke-width="1"/>
<line clip-path="url(#clipPath72)" fill="none" x1="538" x2="528" y1="715" y2="711" stroke="black" stroke-width="1"/>
<line clip-path="url(#clipPath70)" fill="none" x1="253" x2="160" y1="258" y2="258" stroke-dasharray="3,3" stroke="black"/>
</g>
<g stroke-width="1.0827" font-size="15" stroke-dasharray="3,3" font-family="'Segoe UI'" stroke-linecap="butt">
<text xml:space="preserve" x="144" y="248" clip-path="url(#clipPath73)" stroke="none">2.2: preventDefault</text>
<line clip-path="url(#clipPath74)" fill="none" x1="170" x2="160" y1="255" y2="258" stroke-dasharray="none" stroke-width="1"/>
<line clip-path="url(#clipPath74)" fill="none" x1="160" x2="170" y1="258" y2="262" stroke-dasharray="none" stroke-width="1"/>
<line clip-path="url(#clipPath70)" fill="none" x1="160" x2="191" y1="276" y2="276" stroke-dasharray="none"/>
<line clip-path="url(#clipPath70)" fill="none" x1="191" x2="191" y1="276" y2="321" stroke-dasharray="none"/>
<line clip-path="url(#clipPath70)" fill="none" x1="191" x2="160" y1="321" y2="321" stroke-dasharray="none"/>
<text x="130" y="306" clip-path="url(#clipPath75)" stroke-dasharray="none" stroke="none" xml:space="preserve">2.3: setStateFormData</text>
<polygon stroke-dasharray="none" clip-path="url(#clipPath76)" points=" 160 321 170 318 170 325" stroke="none"/>
<polygon fill="none" stroke-dasharray="none" clip-path="url(#clipPath76)" points=" 160 321 170 318 170 325"/>
<line clip-path="url(#clipPath70)" fill="none" x1="160" x2="253" y1="208" y2="208" stroke-dasharray="none"/>
<text x="144" y="204" clip-path="url(#clipPath77)" stroke-dasharray="none" stroke="none" xml:space="preserve">2.1: preventDefault</text>
<polygon stroke-dasharray="none" clip-path="url(#clipPath78)" points=" 253 208 243 212 243 205" stroke="none"/>
<polygon fill="none" stroke-dasharray="none" clip-path="url(#clipPath78)" points=" 253 208 243 212 243 205"/>
<line clip-path="url(#clipPath70)" fill="none" x1="154" x2="432" y1="769" y2="769" stroke-dasharray="none"/>
<text x="270" y="765" clip-path="url(#clipPath79)" stroke-dasharray="none" stroke="none" xml:space="preserve">2: push</text>
<line clip-path="url(#clipPath80)" fill="none" x1="422" x2="432" y1="773" y2="769" stroke-dasharray="none" stroke-width="1"/>
<line clip-path="url(#clipPath80)" fill="none" x1="432" x2="422" y1="769" y2="765" stroke-dasharray="none" stroke-width="1"/>
<line clip-path="url(#clipPath70)" fill="none" x1="346" x2="689" y1="397" y2="397" stroke-dasharray="none"/>
<text x="482" y="392" clip-path="url(#clipPath81)" stroke-dasharray="none" stroke="none" xml:space="preserve">2.4.1: login</text>
<polygon stroke-dasharray="none" clip-path="url(#clipPath82)" points=" 689 397 679 401 679 393" stroke="none"/>
<polygon fill="none" stroke-dasharray="none" clip-path="url(#clipPath82)" points=" 689 397 679 401 679 393"/>
<line clip-path="url(#clipPath70)" fill="none" x1="160" x2="340" y1="387" y2="387" stroke-dasharray="none"/>
<text x="219" y="383" clip-path="url(#clipPath83)" stroke-dasharray="none" stroke="none" xml:space="preserve">2.4: Fetch</text>
<polygon stroke-dasharray="none" clip-path="url(#clipPath84)" points=" 340 387 330 391 330 384" stroke="none"/>
<polygon fill="none" stroke-dasharray="none" clip-path="url(#clipPath84)" points=" 340 387 330 391 330 384"/>
<line clip-path="url(#clipPath70)" fill="none" x1="689" x2="346" y1="447" y2="447"/>
<text xml:space="preserve" x="482" y="436" clip-path="url(#clipPath85)" stroke="none">2.4.2: login</text>
<line clip-path="url(#clipPath86)" fill="none" x1="356" x2="346" y1="443" y2="447" stroke-dasharray="none" stroke-width="1"/>
<line clip-path="url(#clipPath86)" fill="none" x1="346" x2="356" y1="447" y2="451" stroke-dasharray="none" stroke-width="1"/>
<line clip-path="url(#clipPath70)" fill="none" x1="60" x2="154" y1="196" y2="196" stroke-dasharray="none"/>
<text x="41" y="191" clip-path="url(#clipPath87)" stroke-dasharray="none" stroke="none" xml:space="preserve">2: onSubmitHandler</text>
<line clip-path="url(#clipPath88)" fill="none" x1="144" x2="154" y1="200" y2="196" stroke-dasharray="none" stroke-width="1"/>
<line clip-path="url(#clipPath88)" fill="none" x1="154" x2="144" y1="196" y2="192" stroke-dasharray="none" stroke-width="1"/>
<line clip-path="url(#clipPath70)" fill="none" x1="154" x2="185" y1="841" y2="841" stroke-dasharray="none"/>
<line clip-path="url(#clipPath70)" fill="none" x1="185" x2="185" y1="841" y2="865" stroke-dasharray="none"/>
<line clip-path="url(#clipPath70)" fill="none" x1="185" x2="160" y1="865" y2="865" stroke-dasharray="none"/>
<text x="117" y="857" clip-path="url(#clipPath89)" stroke-dasharray="none" stroke="none" xml:space="preserve">1: setStateFormMessage</text>
<line clip-path="url(#clipPath90)" fill="none" x1="170" x2="160" y1="861" y2="865" stroke-dasharray="none" stroke-width="1"/>
<line clip-path="url(#clipPath90)" fill="none" x1="160" x2="170" y1="865" y2="869" stroke-dasharray="none" stroke-width="1"/>
<line clip-path="url(#clipPath70)" fill="none" x1="340" x2="160" y1="501" y2="501" stroke-dasharray="none"/>
<text x="222" y="490" clip-path="url(#clipPath91)" stroke-dasharray="none" stroke="none" xml:space="preserve">1: error()</text>
<line clip-path="url(#clipPath92)" fill="none" x1="170" x2="160" y1="497" y2="501" stroke-dasharray="none" stroke-width="1"/>
<line clip-path="url(#clipPath92)" fill="none" x1="160" x2="170" y1="501" y2="505" stroke-dasharray="none" stroke-width="1"/>
<line clip-path="url(#clipPath70)" fill="none" x1="60" x2="154" y1="108" y2="108" stroke-dasharray="none"/>
<text x="39" y="104" clip-path="url(#clipPath93)" stroke-dasharray="none" stroke="none" xml:space="preserve">1: onChangeHandler</text>
<line clip-path="url(#clipPath94)" fill="none" x1="144" x2="154" y1="112" y2="108" stroke-dasharray="none" stroke-width="1"/>
<line clip-path="url(#clipPath94)" fill="none" x1="154" x2="144" y1="108" y2="104" stroke-dasharray="none" stroke-width="1"/>
<line clip-path="url(#clipPath70)" fill="none" x1="346" x2="377" y1="590" y2="590" stroke-dasharray="none"/>
<line clip-path="url(#clipPath70)" fill="none" x1="377" x2="377" y1="590" y2="600" stroke-dasharray="none"/>
<line clip-path="url(#clipPath70)" fill="none" x1="377" x2="346" y1="600" y2="600" stroke-dasharray="none"/>
<text x="357" y="584" clip-path="url(#clipPath95)" stroke-dasharray="none" stroke="none" xml:space="preserve">2.4.3: json</text>
<polygon stroke-dasharray="none" clip-path="url(#clipPath96)" points=" 346 600 356 596 356 604" stroke="none"/>
<polygon fill="none" stroke-dasharray="none" clip-path="url(#clipPath96)" points=" 346 600 356 596 356 604"/>
<line clip-path="url(#clipPath70)" fill="none" x1="60" x2="154" y1="108" y2="108" stroke-dasharray="none"/>
<text x="39" y="104" clip-path="url(#clipPath93)" stroke-dasharray="none" stroke="none" xml:space="preserve">1: onChangeHandler</text>
<line clip-path="url(#clipPath94)" fill="none" x1="144" x2="154" y1="112" y2="108" stroke-dasharray="none" stroke-width="1"/>
<line clip-path="url(#clipPath94)" fill="none" x1="154" x2="144" y1="108" y2="104" stroke-dasharray="none" stroke-width="1"/>
<line clip-path="url(#clipPath70)" fill="none" x1="60" x2="154" y1="196" y2="196" stroke-dasharray="none"/>
<text x="41" y="191" clip-path="url(#clipPath87)" stroke-dasharray="none" stroke="none" xml:space="preserve">2: onSubmitHandler</text>
<line clip-path="url(#clipPath88)" fill="none" x1="144" x2="154" y1="200" y2="196" stroke-dasharray="none" stroke-width="1"/>
<line clip-path="url(#clipPath88)" fill="none" x1="154" x2="144" y1="196" y2="192" stroke-dasharray="none" stroke-width="1"/>
<line clip-path="url(#clipPath70)" fill="none" x1="160" x2="253" y1="208" y2="208" stroke-dasharray="none"/>
<text x="144" y="204" clip-path="url(#clipPath77)" stroke-dasharray="none" stroke="none" xml:space="preserve">2.1: preventDefault</text>
<polygon stroke-dasharray="none" clip-path="url(#clipPath78)" points=" 253 208 243 212 243 205" stroke="none"/>
<polygon fill="none" stroke-dasharray="none" clip-path="url(#clipPath78)" points=" 253 208 243 212 243 205"/>
<line clip-path="url(#clipPath70)" fill="none" x1="253" x2="160" y1="258" y2="258"/>
<text xml:space="preserve" x="144" y="248" clip-path="url(#clipPath73)" stroke="none">2.2: preventDefault</text>
<line clip-path="url(#clipPath74)" fill="none" x1="170" x2="160" y1="255" y2="258" stroke-dasharray="none" stroke-width="1"/>
<line clip-path="url(#clipPath74)" fill="none" x1="160" x2="170" y1="258" y2="262" stroke-dasharray="none" stroke-width="1"/>
<line clip-path="url(#clipPath70)" fill="none" x1="160" x2="191" y1="276" y2="276" stroke-dasharray="none"/>
<line clip-path="url(#clipPath70)" fill="none" x1="191" x2="191" y1="276" y2="321" stroke-dasharray="none"/>
<line clip-path="url(#clipPath70)" fill="none" x1="191" x2="160" y1="321" y2="321" stroke-dasharray="none"/>
<text x="130" y="306" clip-path="url(#clipPath75)" stroke-dasharray="none" stroke="none" xml:space="preserve">2.3: setStateFormData</text>
<polygon stroke-dasharray="none" clip-path="url(#clipPath76)" points=" 160 321 170 318 170 325" stroke="none"/>
<polygon fill="none" stroke-dasharray="none" clip-path="url(#clipPath76)" points=" 160 321 170 318 170 325"/>
<line clip-path="url(#clipPath70)" fill="none" x1="160" x2="340" y1="387" y2="387" stroke-dasharray="none"/>
<text x="219" y="383" clip-path="url(#clipPath83)" stroke-dasharray="none" stroke="none" xml:space="preserve">2.4: Fetch</text>
<polygon stroke-dasharray="none" clip-path="url(#clipPath84)" points=" 340 387 330 391 330 384" stroke="none"/>
<polygon fill="none" stroke-dasharray="none" clip-path="url(#clipPath84)" points=" 340 387 330 391 330 384"/>
<line clip-path="url(#clipPath70)" fill="none" x1="346" x2="689" y1="397" y2="397" stroke-dasharray="none"/>
<text x="482" y="392" clip-path="url(#clipPath81)" stroke-dasharray="none" stroke="none" xml:space="preserve">2.4.1: login</text>
<polygon stroke-dasharray="none" clip-path="url(#clipPath82)" points=" 689 397 679 401 679 393" stroke="none"/>
<polygon fill="none" stroke-dasharray="none" clip-path="url(#clipPath82)" points=" 689 397 679 401 679 393"/>
<line clip-path="url(#clipPath70)" fill="none" x1="689" x2="346" y1="447" y2="447"/>
<text xml:space="preserve" x="482" y="436" clip-path="url(#clipPath85)" stroke="none">2.4.2: login</text>
<line clip-path="url(#clipPath86)" fill="none" x1="356" x2="346" y1="443" y2="447" stroke-dasharray="none" stroke-width="1"/>
<line clip-path="url(#clipPath86)" fill="none" x1="346" x2="356" y1="447" y2="451" stroke-dasharray="none" stroke-width="1"/>
<line clip-path="url(#clipPath70)" fill="none" x1="340" x2="160" y1="501" y2="501" stroke-dasharray="none"/>
<text x="222" y="490" clip-path="url(#clipPath91)" stroke-dasharray="none" stroke="none" xml:space="preserve">1: error()</text>
<line clip-path="url(#clipPath92)" fill="none" x1="170" x2="160" y1="497" y2="501" stroke-dasharray="none" stroke-width="1"/>
<line clip-path="url(#clipPath92)" fill="none" x1="160" x2="170" y1="501" y2="505" stroke-dasharray="none" stroke-width="1"/>
<line clip-path="url(#clipPath70)" fill="none" x1="346" x2="377" y1="590" y2="590" stroke-dasharray="none"/>
<line clip-path="url(#clipPath70)" fill="none" x1="377" x2="377" y1="590" y2="600" stroke-dasharray="none"/>
<line clip-path="url(#clipPath70)" fill="none" x1="377" x2="346" y1="600" y2="600" stroke-dasharray="none"/>
<text x="357" y="584" clip-path="url(#clipPath95)" stroke-dasharray="none" stroke="none" xml:space="preserve">2.4.3: json</text>
<polygon stroke-dasharray="none" clip-path="url(#clipPath96)" points=" 346 600 356 596 356 604" stroke="none"/>
<polygon fill="none" stroke-dasharray="none" clip-path="url(#clipPath96)" points=" 346 600 356 596 356 604"/>
<line clip-path="url(#clipPath70)" fill="none" x1="154" x2="538" y1="715" y2="715" stroke-dasharray="none"/>
<text x="329" y="710" clip-path="url(#clipPath71)" stroke-dasharray="none" stroke="none" xml:space="preserve">1: set</text>
<line clip-path="url(#clipPath72)" fill="none" x1="528" x2="538" y1="719" y2="715" stroke-dasharray="none" stroke-width="1"/>
<line clip-path="url(#clipPath72)" fill="none" x1="538" x2="528" y1="715" y2="711" stroke-dasharray="none" stroke-width="1"/>
<line clip-path="url(#clipPath70)" fill="none" x1="154" x2="432" y1="769" y2="769" stroke-dasharray="none"/>
<text x="270" y="765" clip-path="url(#clipPath79)" stroke-dasharray="none" stroke="none" xml:space="preserve">2: push</text>
<line clip-path="url(#clipPath80)" fill="none" x1="422" x2="432" y1="773" y2="769" stroke-dasharray="none" stroke-width="1"/>
<line clip-path="url(#clipPath80)" fill="none" x1="432" x2="422" y1="769" y2="765" stroke-dasharray="none" stroke-width="1"/>
<line clip-path="url(#clipPath70)" fill="none" x1="154" x2="185" y1="841" y2="841" stroke-dasharray="none"/>
<line clip-path="url(#clipPath70)" fill="none" x1="185" x2="185" y1="841" y2="865" stroke-dasharray="none"/>
<line clip-path="url(#clipPath70)" fill="none" x1="185" x2="160" y1="865" y2="865" stroke-dasharray="none"/>
<text x="117" y="857" clip-path="url(#clipPath89)" stroke-dasharray="none" stroke="none" xml:space="preserve">1: setStateFormMessage</text>
<line clip-path="url(#clipPath90)" fill="none" x1="170" x2="160" y1="861" y2="865" stroke-dasharray="none" stroke-width="1"/>
<line clip-path="url(#clipPath90)" fill="none" x1="160" x2="170" y1="865" y2="869" stroke-dasharray="none" stroke-width="1"/>
</g>
</g>
</svg>